<svg width="6" height="6" viewBox="0 0 6 6" fill="none" xmlns="http://www.w3.org/2000/svg">
<path d="M3.00001 2.01967V1.16667C2.9999 1.10079 2.9803 1.03643 2.94367 0.981674C2.90704 0.926922 2.85502 0.884238 2.79418 0.859001C2.73333 0.833763 2.66637 0.827102 2.60174 0.839855C2.53712 0.852609 2.47771 0.884207 2.43101 0.930668L0.333344 3L2.43101 5.069C2.46189 5.10006 2.49861 5.12471 2.53906 5.14153C2.5795 5.15835 2.62287 5.16701 2.66668 5.16701C2.71048 5.16701 2.75385 5.15835 2.79429 5.14153C2.83474 5.12471 2.87146 5.10006 2.90234 5.069C2.93331 5.03807 2.95788 5.00133 2.97464 4.96089C2.9914 4.92045 3.00002 4.87711 3.00001 4.83333V4.00367C3.91668 4.02633 4.91834 4.19233 5.66668 5.33333V5C5.66668 3.45567 4.50001 2.18567 3.00001 2.01967Z" fill="#727171"/>
</svg>
